<svg width="200" height="120" viewBox="0 0 200 120" xmlns="http://www.w3.org/2000/svg">
  <rect width="200" height="120" rx="12" fill="#10b981"/>
  
  <!-- Main photo frame -->
  <rect x="25" y="25" width="150" height="70" rx="6" fill="#ffffff" stroke="#e5e7eb" stroke-width="2"/>
  
  <!-- Sun/light source -->
  <circle cx="50" cy="40" r="8" fill="#fbbf24"/>
  
  <!-- Mountains/landscape background -->
  <path d="M25 75 L50 50 L75 60 L100 45 L125 55 L150 40 L175 50 L175 95 L25 95 Z" fill="#6b7280"/>
  <path d="M25 85 L40 70 L60 75 L80 65 L100 70 L120 60 L140 65 L160 55 L175 60 L175 95 L25 95 Z" fill="#9ca3af"/>
  
  <!-- Camera aperture icon in corner -->
  <circle cx="160" cy="35" r="10" fill="#374151"/>
  <circle cx="160" cy="35" r="6" fill="#ffffff"/>
  <circle cx="160" cy="35" r="3" fill="#374151"/>
  
  <!-- Small sparkle/star indicators -->
  <path d="M65 35 L67 39 L71 37 L67 41 L65 45 L63 41 L59 37 L63 39 Z" fill="#ffffff" opacity="0.8"/>
  <path d="M140 65 L142 69 L146 67 L142 71 L140 75 L138 71 L134 67 L138 69 Z" fill="#ffffff" opacity="0.6"/>
</svg>